<svg width="200" height="200" viewBox="0 0 200 200" fill="none" xmlns="http://www.w3.org/2000/svg">
<path d="M93.6562 120.848C93.6172 119.441 93.5977 118.387 93.5977 117.684C93.5977 113.543 94.1836 109.969 95.3555 106.961C96.2148 104.695 97.6016 102.41 99.5156 100.105C100.922 98.4258 103.441 95.9844 107.074 92.7812C110.746 89.5391 113.129 86.9609 114.223 85.0469C115.316 83.1328 115.863 81.043 115.863 78.7773C115.863 74.6758 114.262 71.082 111.059 67.9961C107.855 64.8711 103.93 63.3086 99.2812 63.3086C94.7891 63.3086 91.0391 64.7148 88.0312 67.5273C85.0234 70.3398 83.0508 74.7344 82.1133 80.7109L71.2734 79.4219C72.25 71.4141 75.1406 65.2812 79.9453 61.0234C84.7891 56.7656 91.1758 54.6367 99.1055 54.6367C107.504 54.6367 114.203 56.9219 119.203 61.4922C124.203 66.0625 126.703 71.5898 126.703 78.0742C126.703 81.8242 125.824 85.2812 124.066 88.4453C122.309 91.6094 118.871 95.457 113.754 99.9883C110.316 103.035 108.07 105.281 107.016 106.727C105.961 108.172 105.18 109.832 104.672 111.707C104.164 113.582 103.871 116.629 103.793 120.848H93.6562ZM93.0117 142V129.988H105.023V142H93.0117Z" fill="black"/>
</svg>
